FFmpeg version SVN-r25716, Copyright (c) 2000-2010 the FFmpeg developers  built on Nov 10 2010 12:23:18 with gcc 4.1.2 20080704 (Red Hat 4.1.2-48)  configuration: --enable-libmp3lame --enable-shared --disable-mmx --arch=x86_64  libavutil     50.33. 0 / 50.33. 0  libavcore      0.12. 1 /  0.12. 1  libavcodec    52.94. 4 / 52.94. 4  libavformat   52.84. 0 / 52.84. 0  libavdevice   52. 2. 2 / 52. 2. 2  libavfilter    1.59. 0 /  1.59. 0  libswscale     0.12. 0 /  0.12. 0Input #0, avi, from '/RAID10/data/converted_video_files/47673.avi':  Duration: 00:00:05.85, start: 0.000000, bitrate: 187833 kb/s    Stream #0.0: Video: msvideo1, rgb555le, 1024x1024, 20 tbr, 20 tbn, 20 tbc[buffer @ 0x66d4c0] w:1024 h:1024 pixfmt:rgb555le[ffsink @ 0x66c5a0] auto-inserting filter 'auto-inserted scaler 0' between the filter 'src' and the filter 'out'[scale @ 0x66b460] w:1024 h:1024 fmt:rgb555le -> w:1024 h:1024 fmt:yuv420p flags:0x4Output #0, flv, to '/RAID10/data/converted_video_files/47673.flv':  Metadata:    encoder         : Lavf52.84.0    Stream #0.0: Video: flv, yuv420p, 1024x1024, q=2-31, 600 kb/s, 1k tbn, 24 tbcStream mapping:  Stream #0.0 -> #0.0Press [q] to stop encodingframe=    8 fps=  0 q=11.7 size=     303kB time=0.37 bitrate=6643.6kbits/s    frame=   17 fps= 14 q=11.3 size=     338kB time=0.83 bitrate=3327.6kbits/s    frame=   28 fps= 16 q=12.4 size=     380kB time=1.38 bitrate=2263.7kbits/s    frame=   39 fps= 17 q=11.0 size=     423kB time=1.96 bitrate=1770.3kbits/s    frame=   47 fps= 17 q=10.4 size=     435kB time=2.33 bitrate=1527.7kbits/s    frame=   57 fps= 17 q=10.8 size=     475kB time=2.83 bitrate=1372.4kbits/s    frame=   67 fps= 17 q=10.2 size=     515kB time=3.33 bitrate=1264.9kbits/s    frame=   76 fps= 17 q=11.8 size=     554kB time=3.79 bitrate=1196.6kbits/s    frame=   84 fps= 17 q=9.9 size=     563kB time=4.21 bitrate=1094.9kbits/s    frame=   90 fps= 17 q=11.3 size=     598kB time=4.50 bitrate=1089.1kbits/s    frame=  100 fps= 17 q=12.3 size=     641kB time=5.00 bitrate=1049.5kbits/s    frame=  110 fps= 17 q=9.7 size=     681kB time=5.50 bitrate=1014.6kbits/s    frame=  117 fps= 17 q=10.6 Lsize=     689kB time=5.83 bitrate= 967.0kbits/s    video:687kB audio:0kB global headers:0kB muxing overhead 0.296129%